HIERARCHY
ROOT Hips
{
	OFFSET 4.076200 -17.275196 43.303001
	CHANNELS 6 Xposition Yposition Zposition Zrotation Xrotation Yrotation
	JOINT Chest
	{
		OFFSET -0.689800 0.941999 5.341000
		CHANNELS 6 Xposition Yposition Zposition Zrotation Xrotation Yrotation
		JOINT Chest2
		{
			OFFSET 0.000000 0.000000 4.278900
			CHANNELS 6 Xposition Yposition Zposition Zrotation Xrotation Yrotation
			JOINT Neck
			{
				OFFSET 0.000000 0.000000 9.970299
				CHANNELS 6 Xposition Yposition Zposition Zrotation Xrotation Yrotation
				JOINT Head
				{
					OFFSET 0.000000 0.000002 2.173901
					CHANNELS 6 Xposition Yposition Zposition Zrotation Xrotation Yrotation
					End Site
					{
						OFFSET 0.000000 0.000000 6.488197
					}
				}
			}
			JOINT LeftCollar
			{
				OFFSET 2.472300 -0.285801 5.433899
				CHANNELS 6 Xposition Yposition Zposition Zrotation Xrotation Yrotation
				JOINT LeftShoulder
				{
					OFFSET 5.327700 0.000000 0.000000
					CHANNELS 6 Xposition Yposition Zposition Zrotation Xrotation Yrotation
					JOINT LeftElbow
					{
						OFFSET 0.000000 0.000000 -10.713001
						CHANNELS 6 Xposition Yposition Zposition Zrotation Xrotation Yrotation
						JOINT LeftWrist
						{
							OFFSET 0.000000 -0.000002 -13.396900
							CHANNELS 6 Xposition Yposition Zposition Zrotation Xrotation Yrotation
							End Site
							{
								OFFSET 0.000000 0.000000 -2.173901
							}
						}
					}
				}
			}
			JOINT RightCollar
			{
				OFFSET -2.589400 -1.358400 6.105000
				CHANNELS 6 Xposition Yposition Zposition Zrotation Xrotation Yrotation
				JOINT RightShoulder
				{
					OFFSET -4.580200 0.000000 0.000000
					CHANNELS 6 Xposition Yposition Zposition Zrotation Xrotation Yrotation
					JOINT RightElbow
					{
						OFFSET 0.000000 0.000000 -10.761101
						CHANNELS 6 Xposition Yposition Zposition Zrotation Xrotation Yrotation
						JOINT RightWrist
						{
							OFFSET 0.000000 -0.000002 -13.028500
							CHANNELS 6 Xposition Yposition Zposition Zrotation Xrotation Yrotation
							End Site
							{
								OFFSET 0.000000 0.000000 -2.173901
							}
						}
					}
				}
			}
		}
	}
	JOINT LeftHip
	{
		OFFSET 2.532500 0.486900 -2.489700
		CHANNELS 6 Xposition Yposition Zposition Zrotation Xrotation Yrotation
		JOINT LeftKnee
		{
			OFFSET 0.000000 -0.000002 -18.199398
			CHANNELS 6 Xposition Yposition Zposition Zrotation Xrotation Yrotation
			JOINT LeftAnkle
			{
				OFFSET 0.000000 -0.000002 -16.083900
				CHANNELS 6 Xposition Yposition Zposition Zrotation Xrotation Yrotation
				End Site
				{
					OFFSET 0.000000 -8.641399 0.000000
				}
			}
		}
	}
	JOINT RightHip
	{
		OFFSET -2.112700 -0.049900 -2.711102
		CHANNELS 6 Xposition Yposition Zposition Zrotation Xrotation Yrotation
		JOINT RightKnee
		{
			OFFSET 0.000000 -0.000002 -19.127298
			CHANNELS 6 Xposition Yposition Zposition Zrotation Xrotation Yrotation
			JOINT RightAnkle
			{
				OFFSET 0.000000 -0.000002 -14.874901
				CHANNELS 6 Xposition Yposition Zposition Zrotation Xrotation Yrotation
				End Site
				{
					OFFSET 0.000000 -8.198299 0.000000
				}
			}
		}
	}
}
MOTION
Frames: 7
Frame Time: 0.041667
85.853104 -62.326096 38.830601 -84.016914 6.644648 2.579013 -0.689807 0.941991 5.340998 -5.790619 -5.550533 0.978911 -0.000006 -0.000006 4.278901 3.404101 -0.172075 0.005527 -0.000009 0.000004 9.970292 -5.685239 6.408179 -5.005973 0.000005 0.000000 2.173900 0.881717 -0.137202 -0.375832 2.472287 -0.285801 5.433899 -12.792393 2.860347 -14.442445 5.327705 -0.000013 0.000003 -26.290353 -41.261063 -37.826223 0.000003 -0.000004 -10.712999 32.906175 -39.656317 74.115851 -0.000007 -0.000003 -13.396909 -73.312334 2.194695 -96.643488 -2.589413 -1.358407 6.104996 9.506844 -2.361988 0.106309 -4.580209 -0.000001 0.000001 39.329483 -23.813371 49.997815 0.000007 -0.000006 -10.761107 -58.418328 -54.659716 -86.558202 0.000001 0.000001 -13.028495 -103.673604 1.795480 -145.435054 2.532496 0.486892 -2.489697 36.070482 -34.484686 8.332892 0.000007 -0.000003 -18.199394 -114.392999 50.922298 96.773016 0.000005 -0.000006 -16.083902 -4.627244 51.772527 39.580489 -2.112702 -0.049899 -2.711106 -35.405979 -29.673241 -25.714766 0.000000 0.000001 -19.127302 16.026322 74.103489 -2.694898 -0.000000 -0.000002 -14.874891 -10.422876 11.937950 17.684128
85.751801 -62.330093 38.718895 -84.069691 6.949625 2.631814 -0.689803 0.942010 5.341000 -5.670549 -5.776673 0.970674 0.000002 -0.000016 4.278897 3.437887 -0.199830 0.002188 0.000003 -0.000005 9.970298 -5.770485 6.307561 -5.060256 0.000001 -0.000004 2.173891 0.883018 -0.192210 -0.355878 2.472299 -0.285809 5.433905 -12.857198 2.950125 -14.504277 5.327703 -0.000014 -0.000002 -26.313188 -41.385018 -37.941332 -0.000010 -0.000003 -10.713002 33.009713 -39.104804 74.238576 -0.000002 0.000002 -13.396898 -73.720144 2.063308 -96.754506 -2.589396 -1.358404 6.105000 9.515773 -2.431772 -0.085147 -4.580197 -0.000008 -0.000001 39.162905 -23.754122 50.024333 0.000005 -0.000002 -10.761097 -58.372511 -54.683010 -86.627624 0.000013 -0.000004 -13.028505 -103.483554 1.789699 -145.607148 2.532498 0.486909 -2.489699 37.214805 -34.995485 8.959204 -0.000006 0.000002 -18.199394 -115.713636 49.966399 97.433912 0.000006 -0.000014 -16.083904 -4.130952 51.343058 40.835608 -2.112703 -0.049890 -2.711101 -35.395181 -30.090856 -25.968710 0.000009 -0.000003 -19.127293 19.730145 74.894923 -6.140137 -0.000004 0.000002 -14.874907 -11.050159 11.384307 17.057983
85.650497 -62.336094 38.608791 -84.192955 7.124570 2.769601 -0.689805 0.942010 5.340996 -5.167038 -5.840125 0.961067 -0.000004 0.000012 4.278901 3.142860 -0.222077 -0.004431 -0.000006 -0.000010 9.970301 -5.924952 6.144237 -5.088631 -0.000003 -0.000008 2.173889 0.894757 -0.176593 -0.375786 2.472286 -0.285813 5.433900 -12.784061 3.262132 -14.524515 5.327708 0.000004 0.000000 -26.922114 -41.500021 -38.567510 0.000007 -0.000015 -10.713000 33.382130 -39.052894 74.368664 -0.000007 -0.000002 -13.396895 -73.635532 2.000876 -96.824557 -2.589406 -1.358408 6.104996 9.526135 -2.534275 -0.246194 -4.580195 0.000014 -0.000003 38.992085 -23.939253 49.996028 0.000004 -0.000003 -10.761107 -58.021146 -54.293003 -86.575585 0.000012 0.000007 -13.028499 -103.472134 1.646730 -145.276566 2.532496 0.486900 -2.489707 37.653477 -35.407226 9.114131 -0.000009 0.000012 -18.199394 -116.363447 49.714208 97.992731 -0.000002 -0.000002 -16.083899 -3.975167 50.845147 41.542273 -2.112704 -0.049895 -2.711103 -35.954553 -30.208772 -26.507954 -0.000003 0.000008 -19.127298 22.044536 75.717701 -7.890743 0.000001 -0.000009 -14.874899 -11.158936 10.986679 16.563562
85.552696 -62.348095 38.504494 -84.374228 7.250404 2.886523 -0.689810 0.941998 5.340996 -4.928054 -5.854881 0.877639 -0.000003 -0.000006 4.278899 3.040520 -0.259143 -0.010870 -0.000005 -0.000006 9.970301 -5.994484 6.027885 -4.985958 0.000005 0.000007 2.173896 0.920935 -0.156389 -0.358731 2.472290 -0.285803 5.433901 -12.739753 3.314694 -14.409957 5.327696 -0.000012 -0.000006 -27.079825 -41.507930 -38.892716 0.000012 -0.000008 -10.713003 33.374220 -39.307452 74.397071 0.000003 -0.000001 -13.396896 -73.244695 2.070319 -96.795044 -2.589407 -1.358408 6.105006 9.645654 -2.616363 -0.352375 -4.580199 0.000004 0.000008 38.876060 -23.998510 50.003146 0.000006 -0.000003 -10.761092 -58.149232 -54.409656 -86.805202 0.000003 -0.000001 -13.028494 -103.834380 1.504540 -145.130086 2.532490 0.486896 -2.489697 38.177861 -35.757854 9.321519 -0.000017 0.000003 -18.199398 -117.129821 49.099095 98.446918 -0.000004 -0.000017 -16.083900 -4.033081 50.290604 42.344133 -2.112711 -0.049892 -2.711107 -36.388096 -30.254634 -26.918404 -0.000001 0.000009 -19.127300 21.201524 76.321756 -6.872005 0.000005 -0.000003 -14.874901 -10.789412 10.978711 16.644741
85.451897 -62.365593 38.413605 -84.580056 7.494534 2.962647 -0.689801 0.941992 5.340998 -4.621313 -6.019541 0.796466 -0.000001 -0.000005 4.278902 2.915951 -0.310805 -0.019714 0.000003 -0.000006 9.970301 -6.037176 5.909519 -4.840218 0.000005 -0.000004 2.173891 0.946312 -0.103775 -0.391039 2.472304 -0.285811 5.433899 -13.035664 3.635753 -14.305211 5.327704 -0.000007 -0.000000 -26.868159 -41.692950 -39.192305 0.000002 -0.000002 -10.712984 33.303586 -39.222966 74.412411 -0.000004 -0.000007 -13.396903 -73.446158 2.105498 -96.752164 -2.589395 -1.358401 6.105001 9.723940 -2.647033 -0.414671 -4.580206 0.000001 0.000001 38.708284 -24.063875 49.973701 0.000003 -0.000004 -10.761095 -58.096838 -54.138094 -86.899882 0.000012 0.000003 -13.028507 -103.613396 1.501014 -145.489327 2.532494 0.486892 -2.489708 38.935227 -36.156269 9.781442 0.000005 -0.000008 -18.199396 -118.131619 48.581165 99.002212 0.000002 0.000001 -16.083897 -4.488692 50.122213 43.397181 -2.112701 -0.049913 -2.711106 -36.452221 -30.483664 -27.148301 -0.000001 0.000002 -19.127298 20.855937 76.757850 -6.602195 -0.000006 0.000002 -14.874896 -10.666062 11.038266 16.973321
85.355911 -62.383698 38.319500 -84.826769 7.638010 3.016919 -0.689813 0.941994 5.340997 -4.429519 -6.132362 0.723410 -0.000001 0.000010 4.278903 2.857917 -0.332383 -0.023456 -0.000005 -0.000009 9.970297 -6.082369 5.862649 -4.620987 0.000003 -0.000005 2.173889 1.050548 -0.104832 -0.426049 2.472300 -0.285815 5.433900 -12.959378 3.673618 -14.321133 5.327702 -0.000015 0.000005 -26.864698 -41.624218 -39.201901 0.000008 0.000008 -10.712998 33.375405 -39.210019 74.476021 -0.000004 -0.000002 -13.396894 -73.655121 1.959912 -96.599639 -2.589404 -1.358409 6.104999 9.970003 -2.671034 -0.473028 -4.580203 -0.000012 0.000010 38.647652 -24.045841 50.017489 0.000006 0.000007 -10.761107 -57.899664 -53.945558 -86.615357 0.000001 0.000002 -13.028502 -103.126451 1.718200 -146.092829 2.532487 0.486892 -2.489698 39.040299 -36.462258 9.896783 -0.000003 0.000008 -18.199396 -118.561497 48.382738 99.423860 0.000005 -0.000009 -16.083900 -5.542516 50.243640 44.388686 -2.112705 -0.049900 -2.711105 -37.014755 -30.607399 -27.654700 0.000002 0.000000 -19.127300 20.905662 77.429094 -6.187392 0.000008 0.000005 -14.874902 -10.200636 11.175830 16.757579
85.256104 -62.403889 38.234798 -85.089042 7.685810 3.086947 -0.689814 0.942006 5.340991 -3.891384 -6.096043 0.681429 -0.000002 0.000002 4.278902 2.538066 -0.351690 -0.030355 -0.000007 -0.000014 9.970294 -6.240911 5.733039 -4.387839 -0.000002 -0.000011 2.173894 1.185329 -0.048203 -0.492608 2.472300 -0.285805 5.433893 -12.761759 3.854842 -14.399205 5.327710 -0.000005 -0.000008 -27.013253 -41.829544 -39.303227 0.000011 -0.000007 -10.713002 33.060947 -40.319559 74.358357 -0.000001 -0.000001 -13.396894 -72.672796 1.860319 -96.289261 -2.589406 -1.358407 6.104993 9.935973 -2.728487 -0.460511 -4.580202 -0.000005 -0.000002 38.528581 -24.372060 49.985626 0.000003 -0.000008 -10.761093 -57.571323 -53.299559 -86.637521 0.000001 -0.000005 -13.028506 -102.804708 1.810163 -146.396431 2.532485 0.486896 -2.489705 39.084217 -36.730165 9.946002 0.000000 0.000001 -18.199398 -119.053448 49.306702 100.074156 -0.000006 -0.000010 -16.083904 -7.568261 51.144771 44.071160 -2.112715 -0.049900 -2.711104 -37.536408 -30.545975 -28.018720 -0.000002 0.000006 -19.127298 22.699611 77.980441 -7.380701 -0.000006 0.000010 -14.874907 -9.969122 11.153532 16.391037
